<?xml version="1.0" encoding="utf-8"?>
<svg version="1.1" xmlns="http://www.w3.org/2000/svg" xmlns:xlink="http://www.w3.org/1999/xlink" x="0px" y="0px"
	 viewBox="0 0 256 256" style="enable-background:new 0 0 256 256;" xml:space="preserve">
<style type="text/css">
	.st0{fill:#C04A3F;}
	.st1{fill:#FFFFFF;}
</style>
<rect class="st0" width="256" height="256"/>
<title>EXT:sessionpassword</title>
<g>
	<path class="st1" d="M98.1,195.6l-5.6-1.4l1.6-5.5l5.8,2.2l-0.4-6.8h6.2l-0.4,6.8l5.8-2.3l1.6,5.5l-5.8,1.5l3.7,5.3l-4.7,3
		l-3.4-5.8l-3.4,5.8l-4.7-3L98.1,195.6z"/>
</g>
<g>
	<path class="st1" d="M72.7,195.6l-5.6-1.4l1.6-5.5l5.8,2.2l-0.4-6.8h6.2l-0.4,6.8l5.8-2.3l1.6,5.5l-5.8,1.5l3.7,5.3l-4.7,3
		l-3.4-5.8l-3.4,5.8l-4.7-3L72.7,195.6z"/>
</g>
<g>
	<path class="st1" d="M47.3,195.6l-5.6-1.4l1.6-5.5l5.8,2.2l-0.4-6.8h6.2l-0.4,6.8l5.8-2.3l1.6,5.5l-5.8,1.5l3.7,5.3l-4.7,3
		l-3.4-5.8l-3.4,5.8l-4.7-3L47.3,195.6z"/>
</g>
<g>
	<path class="st1" d="M199.7,195.6l-5.6-1.4l1.6-5.5l5.8,2.2l-0.4-6.8h6.2l-0.4,6.8l5.8-2.3l1.6,5.5l-5.8,1.5l3.7,5.3l-4.7,3
		l-3.4-5.8l-3.4,5.8l-4.7-3L199.7,195.6z"/>
</g>
<g>
	<path class="st1" d="M174.3,195.6l-5.6-1.4l1.6-5.5l5.8,2.2l-0.4-6.8h6.2l-0.4,6.8l5.8-2.3l1.6,5.5l-5.8,1.5l3.7,5.3l-4.7,3
		l-3.4-5.8l-3.4,5.8l-4.7-3L174.3,195.6z"/>
</g>
<g>
	<path class="st1" d="M148.9,195.6l-5.6-1.4l1.6-5.5l5.8,2.2l-0.4-6.8h6.2l-0.4,6.8l5.8-2.3l1.6,5.5l-5.8,1.5l3.7,5.3l-4.7,3
		l-3.4-5.8L150,204l-4.7-3L148.9,195.6z"/>
</g>
<g>
	<path class="st1" d="M123.5,195.6l-5.6-1.4l1.6-5.5l5.8,2.2l-0.4-6.8h6.2l-0.4,6.8l5.8-2.3l1.6,5.5l-5.8,1.5l3.7,5.3l-4.7,3
		l-3.4-5.8l-3.4,5.8l-4.7-3L123.5,195.6z"/>
</g>
<g>
	<rect x="41.7" y="212.3" class="st1" width="172.6" height="4"/>
</g>
<path class="st1" d="M162.9,84.4h-5.8V72.7c0-16.1-13-29.1-29.1-29.1s-29.1,13-29.1,29.1v11.6h-5.8c-6.4,0-11.6,5.2-11.6,11.6v58.2
	c0,6.4,5.2,11.6,11.6,11.6h69.8c6.4,0,11.6-5.2,11.6-11.6V96C174.6,89.6,169.3,84.4,162.9,84.4z M128,136.7
	c-6.4,0-11.6-5.2-11.6-11.6s5.2-11.6,11.6-11.6s11.6,5.2,11.6,11.6S134.4,136.7,128,136.7z M146,84.4H110V72.7c0-10,8.1-18,18-18
	s18,8.1,18,18V84.4z"/>
</svg>
